<svg height="4rem" width="4rem" xmlns="http://www.w3.org/2000/svg" xmlns:xlink="http://www.w3.org/1999/xlink" version="1.1" id="Layer_1" x="0px" y="0px" viewBox="0 0 235.56822 250" style="enable-background:new 0 0 235.56822 250;" xml:space="preserve" class="id-7160024a-1975-4d20-a458-fb798a4daa81">
<style type="text/css">
	.id-7160024a-1975-4d20-a458-fb798a4daa81 .st0{fill:url(#SVGID_1_);}
	.id-7160024a-1975-4d20-a458-fb798a4daa81 .st1{fill:url(#SVGID_00000027590999761295295230000004295884329188409490_);}
	.id-7160024a-1975-4d20-a458-fb798a4daa81 .st2{fill:#2579F2;}
	.id-7160024a-1975-4d20-a458-fb798a4daa81 .st3{fill:url(#SVGID_00000173880328314223071270000003374337180114940553_);}
	.id-7160024a-1975-4d20-a458-fb798a4daa81 .st4{fill:url(#SVGID_00000045597883985113874550000016580260461501024156_);}
	.id-7160024a-1975-4d20-a458-fb798a4daa81 .st5{fill:#D6479C;}
	.id-7160024a-1975-4d20-a458-fb798a4daa81 .st6{fill:#3381FF;}
	.id-7160024a-1975-4d20-a458-fb798a4daa81 .st7{fill:#E24B9E;}
	.id-7160024a-1975-4d20-a458-fb798a4daa81 .st8{fill:#33B6FF;}
	.id-7160024a-1975-4d20-a458-fb798a4daa81 .st9{fill:#9547B2;}
	.id-7160024a-1975-4d20-a458-fb798a4daa81 .st10{fill:#FF5FAF;}
</style>
<g id="path-09">
	<linearGradient id="SVGID_1_" gradientUnits="userSpaceOnUse" x1="115.09328" y1="1.19745" x2="115.09322" y2="1.19918">
		<stop offset="0" style="stop-color:#3381FF"></stop>
		<stop offset="1" style="stop-color:#33B6FF"></stop>
	</linearGradient>
	<polygon class="st0" points="115.09072,1.20047 115.0909,1.20151 115.09579,1.19602  " style="fill: #e6e6e5"></polygon>

		<linearGradient id="SVGID_00000176013989390740646490000007810948422133903262_" gradientUnits="userSpaceOnUse" x1="61.41079" y1="66.46647" x2="59.03526" y2="143.07715">
		<stop offset="0" style="stop-color:#3381FF"></stop>
		<stop offset="1" style="stop-color:#33B6FF"></stop>
	</linearGradient>
	<path style="fill: #e6e6e5" d="M119.02033,24.51507L115.0909,1.20151   c-0.65717,0.65113-1.2364,1.57241-1.65633,2.81198c-8.12784,23.99081-13.22823,38.53645-25.13865,53.87189l-10.62946,4.93975   l-0.44849,6.43995l-29.52579,8.2598l-0.00006-0.00012C31.59361,88.2459,17.68549,107.60287,9.49137,126.7157   c-2.46292,5.74469,4.51061,10.92633,9.19871,6.79243c0.00043-0.00043,0.00104-0.00079,0.00146-0.00122l11.42481-10.89789   l6.23512,2.91587l-2.53384,7.23434c-0.09479,0.28583-0.2182,0.573-0.37329,0.85962   C22.64832,153.57013,6.29742,189.64482,0.16265,216.7066c-1.36513,6.02179,6.19459,9.84453,10.27966,5.21442   c9.14415-10.36414,22.00581-22.80222,34.88163-24.3737c18.03542-2.20125,22.75325,27.50667,25.70018,47.48346   c0.78553,5.3252,8.69382,6.75594,10.34289,1.63191c14.56487-45.25589,29.39572-105.45152,36.41711-169.30211   C117.7564,76.05429,119.02033,24.51507,119.02033,24.51507z"></path>
</g>
<path id="path-08" class="st2" d="M47.6922,77.52493c2.14291-1.42728,4.32317-2.70745,6.53542-3.80729l23.43883-10.89262  l18.48286,4.61032C96.1493,67.43535,75.1678,94.65591,47.6922,77.52493z" style="fill: #000000"></path>
<g id="path-07">

		<linearGradient id="SVGID_00000173134697813023519490000008111252218955634569_" gradientUnits="userSpaceOnUse" x1="120.67538" y1="1.65898" x2="120.94881" y2="2.46488">
		<stop offset="0" style="stop-color:#E24B9E"></stop>
		<stop offset="1" style="stop-color:#FF5FAF"></stop>
	</linearGradient>
	<path style="fill: #e6e6e5" d="M119.76888,0.77884l2.36471,3.38633   C121.56821,2.49632,120.71645,1.40049,119.76888,0.77884z"></path>

		<linearGradient id="SVGID_00000054264345082325920820000014658131957656318361_" gradientUnits="userSpaceOnUse" x1="149.85616" y1="68.08156" x2="166.73587" y2="117.83229">
		<stop offset="0" style="stop-color:#E24B9E"></stop>
		<stop offset="1" style="stop-color:#FF5FAF"></stop>
	</linearGradient>
	<path style="fill: #e6e6e5" d="M235.40558,216.85828   c-6.13484-27.06172-22.48573-63.13641-33.28175-83.08769c-0.17706-0.32715-0.30281-0.6543-0.40169-0.98004h-0.00006   c0,0-1.63515-6.545-1.22676-8.45097c0.4084-1.90578,8.73625,1.35103,16.38136,9.31901   c0.00043,0.00037,0.00098,0.00085,0.0014,0.00122c4.6881,4.1339,11.66162-1.04767,9.19872-6.79243   c-8.24529-19.23215-22.22444-38.82729-38.451-49.50643c-0.2793-0.18384-0.61018-0.25262-0.89076-0.43115l-28.6692-13.87669   l-10.79358-5.01599c-11.91042-15.3355-17.01082-29.88114-25.13866-53.87196l-3.39414,10.09698l-0.95533,63.0988l-0.01453,0.0174   c7.01534,63.90033,21.85651,124.14851,36.43157,169.43602c1.64906,5.12402,9.55736,3.69328,10.3429-1.63191   c2.94693-19.97679,7.66475-49.68471,25.70018-47.48346c12.87581,1.5715,25.73747,14.00963,34.88162,24.3737   C229.21092,226.7028,236.77071,222.88007,235.40558,216.85828z"></path>
</g>
<path id="path-06" class="st5" d="M147.89455,75.16588l-3.97726-17.31693l2.47432-1.1356  c0.29539,0.39079,0.5766,0.78056,0.88068,1.17186l34.06831,15.83243c2.12636,1.05744,4.22266,2.28294,6.28523,3.64331  C187.62378,77.36248,169.94395,88.71895,147.89455,75.16588z" style="fill: #000000"></path>
<path id="path-05" class="st6" d="M18.69008,133.50829c1.92082-1.69394,4.61032-3.85683,7.59024-6.06876  c3.90511-2.89901,8.95194,1.05488,7.53724,5.31988l10.81121-24.89268C44.62876,107.86672,29.18763,119.98025,18.69008,133.50829z" style="fill: #e6e6e5"></path>
<path id="path-04" class="st7" d="M201.72211,132.79056c-1.28023-4.21851,3.69771-8.07074,7.56572-5.19932  c2.9799,2.21194,5.66942,4.37482,7.59024,6.06876c0.00587,0.00511,0.01225,0.00818,0.01813,0.01329  c-10.49704-13.51476-25.91301-25.60887-25.91301-25.60887L201.72211,132.79056z" style="fill: #e6e6e5"></path>
<path id="path-03" class="st8" d="M102.30058,48.98321c0,16.9814-13.76614,30.74753-30.74754,30.74753  S40.8055,65.96461,40.8055,48.98321s13.76614-30.74754,30.74754-30.74754S102.30058,32.00182,102.30058,48.98321z" style="fill: #e6e6e5"></path>
<path id="path-02" class="st9" d="M121.9666,5.33571c-0.03793,24.12999-1.57652,48.32742-4.1825,72.02524  c-2.60598-23.69783-4.14457-47.89525-4.18256-72.02524c-0.00281-1.7956,0.59743-3.21216,1.48917-4.13524  c0.82238-0.81479,1.76878-1.19792,2.6934-1.20047c0.92455,0.00255,1.87082,0.38568,2.69321,1.19996  C121.3691,2.12356,121.96941,3.54011,121.9666,5.33571z" style="fill: #e6e6e5"></path>
<path id="path-01" class="st10" d="M164.01512,18.23567c16.9814,0,30.74753,13.76614,30.74753,30.74754  s-13.76613,30.74753-30.74753,30.74753s-30.74754-13.76614-30.74754-30.74753S147.03372,18.23567,164.01512,18.23567z" style="fill: #e6e6e5"></path>
</svg>