<svg height="4rem" width="4rem" xmlns="http://www.w3.org/2000/svg" xmlns:xlink="http://www.w3.org/1999/xlink" version="1.1" id="Layer_1" x="0px" y="0px" viewBox="0 0 265.56531 300" style="enable-background:new 0 0 265.56531 300;" xml:space="preserve" class="id-a902f765-1d22-4d50-9a94-b45bb6d0dfaa">
<style type="text/css">
	.id-a902f765-1d22-4d50-9a94-b45bb6d0dfaa .st0{fill:#54BB4A;}
	.id-a902f765-1d22-4d50-9a94-b45bb6d0dfaa .st1{fill:#88DC61;}
</style>
<path id="path-02" class="st0" d="M79.98114,50.56616C18.32744,88.77026-4.12433,155.55371,0.61087,222.72913l0.18991,1.36072  c22.5118-94.42725,93.4184-154.89941,167.95813-173.62817C113.30748,76.27722-1.81802,157.81677,20.77091,300  c0.26912-12.71094,3.34405-25.24182,9.58315-36.35742c10.32659-18.39758,28.29145-32.12012,46.55148-42.06909  c25.58282-13.93884,53.29211-25.01367,77.30885-41.66553c22.3833-15.51965,35.83908-37.70605,44.49707-63.22412  C212.92505,74.79199,217.61874,17.43079,265.56537,0C198.83618,4.77063,129.88524,19.64307,79.98114,50.56616z" style="fill: #e6e6e5"></path>
<path id="path-01_00000021812429125920339970000003449820611081828229_" class="st1" d="M189.34949,109.25122  c-18.53497,86.24109-99.71657,82.70166-154.92357,131.70068c31.38154-37.6731,83.36888-47.27588,120.15837-77.82043  C170.92238,148.75525,181.33438,129.26331,189.34949,109.25122z M197.84155,80.6886  c8.30728-17.37903,14.37726-36.38904,21.23227-54.38354C206.61923,41.63647,200.24753,61.28186,197.84155,80.6886z   M94.90573,77.7782c-40.0675,20.50305-73.11119,57.67419-84.67706,101.58606C25.76956,137.04285,57.18239,101.8988,94.90573,77.7782  z" style="fill: #e6e6e5"></path>
</svg>