<svg height="4rem" width="4rem" xmlns="http://www.w3.org/2000/svg" xmlns:xlink="http://www.w3.org/1999/xlink" version="1.1" id="Layer_1" x="0px" y="0px" viewBox="0 0 199.7666 249.99998" style="enable-background:new 0 0 199.7666 249.99998;" xml:space="preserve" class="id-116f90fa-2380-40f2-9602-01f569005b7f">
<path id="path-01" d="M199.7666,51.23327c-17.95557-16.73163-25.70947-42.84924-25.70947-42.84924  C129.87793,25.70227,105.59523,5.67645,99.88525,0c-5.7085,5.6723-29.9917,25.7041-74.17578,8.38403  c0,0-7.75342,26.11761-25.70947,42.84924c0,0,33.87109,57.94849,2.44873,115.08074c0,0,20.17236,61.32532,97.4248,83.68597  c77.26855-22.35114,97.44482-83.68597,97.44482-83.68597c-31.42285-57.13226,2.44824-115.08075,2.44824-115.08075L199.7666,51.23327  z M166.30811,23.80419c1.27832,2.7901,2.62109,5.5741,4.02588,8.31696c3.99951,7.76123,8.34326,15.4339,13.71484,22.31183  c-3.4458,5.93732-6.36523,12.51569-9.06006,18.8493c1.76416-6.43701,4.06689-12.7038,7.05908-18.68036  c-7.06104-8.69836-12.36768-18.6803-16.60303-29.02185c-5.31396,1.21881-10.75488,1.94733-16.20068,2.03912  C155.02539,26.74847,160.71338,25.46008,166.30811,23.80419z M17.46827,166.37267  c13.62744,23.68335,34.01123,42.92908,57.68994,56.31061c7.91357,4.43762,16.18799,8.27869,24.71729,11.80176  C64.00442,227.48961,29.78956,201.31157,17.46827,166.37267z M85.13576,25.13934  c-14.40869,5.47369-30.3833,6.18243-45.42578,3.18408c-0.97314-0.22821-2.97363-0.69684-4.59326-1.0769  c-4.43164,9.77197-9.67822,19.12024-16.49609,27.45648c1.17285,2.37006,2.16406,4.74304,3.12939,7.15753  c3.25244,8.20319,5.63379,16.75018,7.06201,25.45135C25.23292,75.90569,20.79981,64.7,14.81301,54.37828  c7.45264-9.76007,13.01855-20.93353,17.74658-32.22064c7.39746,1.77679,14.92969,3.2854,22.54248,3.47729  c9.72168,0.39722,19.57129-0.91101,28.84424-3.88629c5.61572-1.79138,11.04248-4.26434,16.00195-7.42114  c6.9917,5.26849,15.06641,8.89716,23.42627,11.50391c-8.24365-1.37006-16.23877-4.06409-23.43018-8.41815  C95.37354,20.66375,90.35987,23.17492,85.13576,25.13934z M108.78712,230.57922  c26.88477-13.54944,51.98729-32.51886,67.93457-58.45508C163.40334,199.37085,136.65968,219.74719,108.78712,230.57922z   M171.05959,86.86621c-3.18115,28.5271-1.5625,53.35986,11.23877,79.50647  C164.07814,144.75043,161.32033,112.82166,171.05959,86.86621z" style="fill: #e6e6e5"></path>
</svg>