<svg height="4rem" width="4rem" xmlns="http://www.w3.org/2000/svg" xmlns:xlink="http://www.w3.org/1999/xlink" version="1.1" id="path-01" x="0px" y="0px" viewBox="0 0 289.1 300" style="enable-background:new 0 0 289.1 300;" xml:space="preserve" class="id-203faa32-67d4-4a46-9c28-55b16803e1dd">
<style type="text/css">
	.id-203faa32-67d4-4a46-9c28-55b16803e1dd .st0{fill:#231F20;}
</style>
<g>
	<g>
		<path class="st0" d="M154.3,6l35.4,71.7c1.6,3.2,4.6,5.4,8.1,5.9L277,95.1c8.9,1.3,12.4,12.2,6,18.5l-57.2,55.8    c-2.6,2.5-3.7,6.1-3.1,9.6l13.5,78.8c1.5,8.8-7.8,15.6-15.7,11.4L149.6,232c-3.2-1.7-6.9-1.7-10.1,0l-70.8,37.2    c-7.9,4.2-17.2-2.6-15.7-11.4L66.6,179c0.6-3.5-0.6-7.1-3.1-9.6L6.3,113.6c-6.4-6.3-2.9-17.2,6-18.5l79.1-11.5    c3.5-0.5,6.6-2.7,8.1-5.9L134.9,6C138.9-2,150.3-2,154.3,6z" style="fill: #e6e6e5"></path>
	</g>
	<g>
		<g id="_x3C_Radial_Repeat_x3E__00000130606849360694003890000015727481888085759894_">
			<circle class="st0" cx="144.5" cy="285" r="15" style="fill: #e6e6e5"></circle>
		</g>
		<g id="_x3C_Radial_Repeat_x3E__00000060021034543814867390000015711613288430571923_">
			<circle class="st0" cx="15" cy="190.8" r="15" style="fill: #e6e6e5"></circle>
		</g>
		<g id="_x3C_Radial_Repeat_x3E__00000008860130055868842240000008801898832266459527_">
			<circle class="st0" cx="64.6" cy="38.5" r="15" style="fill: #e6e6e5"></circle>
		</g>
		<g id="_x3C_Radial_Repeat_x3E__00000183212359499910606730000017228562078049337276_">
			<circle class="st0" cx="224.7" cy="38.6" r="15" style="fill: #e6e6e5"></circle>
		</g>
		<g id="_x3C_Radial_Repeat_x3E__00000054267165721906764780000017267689213340131462_">
			<circle class="st0" cx="274.1" cy="190.9" r="15" style="fill: #e6e6e5"></circle>
		</g>
	</g>
</g>
</svg>